<mxfile host="app.diagrams.net" modified="2023-11-28T08:28:35.144Z" agent="Mozilla/5.0 (Windows NT 10.0; Win64; x64) AppleWebKit/537.36 (KHTML, like Gecko) Chrome/116.0.5845.686 YaBrowser/23.9.5.686 Yowser/2.5 Safari/537.36" etag="f1-CN-DWCz4k3S2A5qbw" version="22.1.4" type="device">
  <diagram name="Page-1" id="2c0d36ab-eaac-3732-788b-9136903baeff">
    <mxGraphModel dx="2503" dy="988" grid="1" gridSize="10" guides="1" tooltips="1" connect="1" arrows="1" fold="1" page="1" pageScale="1.5" pageWidth="1169" pageHeight="827" background="none" math="0" shadow="0">
      <root>
        <mxCell id="0" />
        <mxCell id="1" parent="0" />
        <mxCell id="gJAFX9cJfrrIMlPxtMnf-149" value="" style="ellipse;whiteSpace=wrap;html=1;fillColor=#f5f5f5;fontColor=#333333;strokeColor=#666666;" parent="1" vertex="1">
          <mxGeometry x="60" y="335" width="1130" height="380" as="geometry" />
        </mxCell>
        <mxCell id="gJAFX9cJfrrIMlPxtMnf-146" value="" style="rounded=1;whiteSpace=wrap;html=1;dashed=1;" parent="1" vertex="1">
          <mxGeometry x="760" y="410" width="290" height="230" as="geometry" />
        </mxCell>
        <mxCell id="gJAFX9cJfrrIMlPxtMnf-134" value="" style="rounded=1;whiteSpace=wrap;html=1;dashed=1;" parent="1" vertex="1">
          <mxGeometry x="390" y="410" width="340" height="270" as="geometry" />
        </mxCell>
        <mxCell id="gJAFX9cJfrrIMlPxtMnf-127" value="" style="rounded=1;whiteSpace=wrap;html=1;dashed=1;" parent="1" vertex="1">
          <mxGeometry x="170" y="430" width="210" height="190" as="geometry" />
        </mxCell>
        <mxCell id="13" value="Application layer" style="rounded=0;fillColor=#23445D;gradientColor=none;strokeColor=none;fontColor=#FFFFFF;fontStyle=3;fontFamily=Tahoma;fontSize=14" parent="1" vertex="1">
          <mxGeometry x="182.5" y="410" width="190" height="40" as="geometry" />
        </mxCell>
        <mxCell id="XNS20DA51h8TnCrW4Q-W-130" value="login/logout&lt;br&gt;application&lt;br&gt;UI/UX&lt;br&gt;remote control&lt;br&gt;get statistics&lt;br&gt;status monitor" style="text;html=1;strokeColor=#6c8ebf;fillColor=#dae8fc;align=center;verticalAlign=middle;whiteSpace=wrap;rounded=0;glass=1;" parent="1" vertex="1">
          <mxGeometry x="185" y="480" width="185" height="130" as="geometry" />
        </mxCell>
        <mxCell id="gJAFX9cJfrrIMlPxtMnf-123" value="Domain layer" style="rounded=1;fillColor=#23445D;gradientColor=none;strokeColor=none;fontColor=#FFFFFF;fontStyle=3;fontFamily=Tahoma;fontSize=14;arcSize=0;glass=0;shadow=0;" parent="1" vertex="1">
          <mxGeometry x="465" y="390" width="190" height="40" as="geometry" />
        </mxCell>
        <mxCell id="gJAFX9cJfrrIMlPxtMnf-124" value="&lt;font style=&quot;font-size: 23px;&quot;&gt;Robot&lt;/font&gt;" style="rounded=0;whiteSpace=wrap;html=1;fillColor=#d11010;" parent="1" vertex="1">
          <mxGeometry x="397.5" y="440" width="140" height="30" as="geometry" />
        </mxCell>
        <mxCell id="gJAFX9cJfrrIMlPxtMnf-125" value="&lt;font style=&quot;font-size: 21px;&quot;&gt;User&lt;/font&gt;" style="rounded=0;whiteSpace=wrap;html=1;fillColor=#d11010;" parent="1" vertex="1">
          <mxGeometry x="550" y="440" width="160" height="30" as="geometry" />
        </mxCell>
        <mxCell id="gJAFX9cJfrrIMlPxtMnf-126" value="model&lt;br style=&quot;border-color: var(--border-color);&quot;&gt;name&lt;br style=&quot;border-color: var(--border-color);&quot;&gt;IP-address&lt;br style=&quot;border-color: var(--border-color);&quot;&gt;MAC-address&lt;br style=&quot;border-color: var(--border-color);&quot;&gt;soft version&lt;br style=&quot;border-color: var(--border-color);&quot;&gt;settings set&lt;br style=&quot;border-color: var(--border-color);&quot;&gt;status&lt;br style=&quot;border-color: var(--border-color);&quot;&gt;trajectory planning&lt;br style=&quot;border-color: var(--border-color);&quot;&gt;environment scanning&lt;br&gt;cleaning&lt;br&gt;sleeping mode&lt;br&gt;search charger&lt;br&gt;selfchecking" style="text;html=1;strokeColor=#6c8ebf;fillColor=#dae8fc;align=center;verticalAlign=middle;whiteSpace=wrap;rounded=0;glass=1;" parent="1" vertex="1">
          <mxGeometry x="395" y="470" width="145" height="190" as="geometry" />
        </mxCell>
        <mxCell id="gJAFX9cJfrrIMlPxtMnf-128" style="edgeStyle=orthogonalEdgeStyle;rounded=0;orthogonalLoop=1;jettySize=auto;html=1;exitX=0.5;exitY=1;exitDx=0;exitDy=0;" parent="1" source="gJAFX9cJfrrIMlPxtMnf-127" target="gJAFX9cJfrrIMlPxtMnf-127" edge="1">
          <mxGeometry relative="1" as="geometry" />
        </mxCell>
        <mxCell id="gJAFX9cJfrrIMlPxtMnf-132" value="name&lt;br&gt;email&lt;br&gt;password&lt;br&gt;active&lt;br&gt;activation_key&lt;br&gt;remember_token&lt;br&gt;created_at&lt;br&gt;update_at&lt;br&gt;groups&lt;br&gt;roles&lt;br&gt;permissions" style="whiteSpace=wrap;html=1;aspect=fixed;fillColor=#dae8fc;strokeColor=#6c8ebf;glass=1;" parent="1" vertex="1">
          <mxGeometry x="550" y="470" width="160" height="160" as="geometry" />
        </mxCell>
        <mxCell id="gJAFX9cJfrrIMlPxtMnf-136" value="Infrastructure layer" style="rounded=1;fillColor=#23445D;gradientColor=none;strokeColor=none;fontColor=#FFFFFF;fontStyle=3;fontFamily=Tahoma;fontSize=14;arcSize=0;glass=0;shadow=0;" parent="1" vertex="1">
          <mxGeometry x="820" y="390" width="190" height="40" as="geometry" />
        </mxCell>
        <mxCell id="gJAFX9cJfrrIMlPxtMnf-139" value="&lt;font style=&quot;font-size: 23px;&quot;&gt;API&lt;/font&gt;" style="rounded=0;whiteSpace=wrap;html=1;fillColor=#d11010;" parent="1" vertex="1">
          <mxGeometry x="770" y="450" width="130" height="30" as="geometry" />
        </mxCell>
        <mxCell id="gJAFX9cJfrrIMlPxtMnf-143" value="remote access&lt;br&gt;databases&lt;br&gt;remote maintenance&lt;br&gt;monitor status&lt;br&gt;software update&lt;br&gt;get statistics" style="whiteSpace=wrap;html=1;aspect=fixed;fillColor=#dae8fc;strokeColor=#6c8ebf;glass=1;" parent="1" vertex="1">
          <mxGeometry x="770" y="480" width="130" height="130" as="geometry" />
        </mxCell>
        <mxCell id="gJAFX9cJfrrIMlPxtMnf-144" value="&lt;font style=&quot;font-size: 14px;&quot;&gt;Authorization&lt;/font&gt;" style="rounded=0;whiteSpace=wrap;html=1;fillColor=#d11010;" parent="1" vertex="1">
          <mxGeometry x="910" y="450" width="130" height="30" as="geometry" />
        </mxCell>
        <mxCell id="gJAFX9cJfrrIMlPxtMnf-145" value="cache management&lt;br&gt;personal data&lt;br&gt;hash_password&lt;br&gt;token" style="whiteSpace=wrap;html=1;aspect=fixed;fillColor=#dae8fc;strokeColor=#6c8ebf;glass=1;" parent="1" vertex="1">
          <mxGeometry x="910" y="480" width="130" height="130" as="geometry" />
        </mxCell>
        <mxCell id="gJAFX9cJfrrIMlPxtMnf-147" value="&lt;h1&gt;&lt;font style=&quot;font-size: 23px;&quot;&gt;Domain-Driven Design&lt;/font&gt;&lt;/h1&gt;" style="ellipse;whiteSpace=wrap;html=1;fillColor=#ffe6cc;strokeColor=#d79b00;" parent="1" vertex="1">
          <mxGeometry x="410" y="290" width="400" height="80" as="geometry" />
        </mxCell>
      </root>
    </mxGraphModel>
  </diagram>
</mxfile>
